<svg xmlns="http://www.w3.org/2000/svg" xmlns:xlink="http://www.w3.org/1999/xlink" width="388.001" height="355" viewBox="0 0 388.001 355">
  <defs>
    <clipPath id="clip-path">
      <path id="Path_3660" data-name="Path 3660" d="M485.3,333.879s-35.761-12.334-49.018-17.192-32.69-14.575-40.366-6.413-1.263,20.317,17.2,26.924,70.6,8.638,70.6,8.638A23.1,23.1,0,0,0,485.3,333.879Z" transform="translate(-392.739 -307.123)" fill="none"/>
    </clipPath>
  </defs>
  <g id="check_your_internet" data-name="check your internet" transform="translate(-20 -181)">
    <path id="Path_3606" data-name="Path 3606" d="M518.9,191.471s12.362-14.915,36.064-5.411,46.9,48.53,25.34,95.743" transform="translate(-218.773 166.691)" fill="none" stroke="#4a80b9" stroke-miterlimit="10" stroke-width="1"/>
    <path id="Path_3607" data-name="Path 3607" d="M520.4,202.652c-1.084,2.786-11.86-1.407-10.776-4.193l1.51-3.879a5.781,5.781,0,0,1,7.484-3.291h0a5.781,5.781,0,0,1,3.291,7.485Z" transform="translate(-217.855 165.83)" fill="#f66639"/>
    <path id="Path_3608" data-name="Path 3608" d="M509.618,199.224c-1.229,2.726,9.692,6.979,10.776,4.193C521.218,201.266,510.5,197.261,509.618,199.224Z" transform="translate(-217.854 165.084)" fill="#1877f2"/>
    <path id="Path_3609" data-name="Path 3609" d="M514.139,201.489c-.118.348-.634.489-1.153.313s-.844-.6-.726-.947.633-.489,1.152-.313S514.256,201.141,514.139,201.489Z" transform="translate(-218.12 164.912)" fill="#fff"/>
    <path id="Path_3610" data-name="Path 3610" d="M518.379,203.054c-.118.348-.634.489-1.153.313s-.844-.6-.726-.947.633-.488,1.152-.313S518.5,202.706,518.379,203.054Z" transform="translate(-218.535 164.764)" fill="#fff"/>
    <path id="Path_3611" data-name="Path 3611" d="M584.071,347.075a15.527,15.527,0,0,1-7.7-5.545c-3.039-4.263-1.418-14.444,3.849-17.356s9.319-6.355,8.509-14.256,1.823-14.182,8.508-14.992,9.319-.909,16-6.938,12.155-6.981,14.789-3.567.608,8.029-.811,12.1,3.647,8.232,4.659,12.332.2,9.389-5.065,12.315-8.913,5.271-8.306,10.582-2.431,13.378-13.776,15.321Z" transform="translate(-224.258 157.396)" fill="#98ca46"/>
    <path id="Path_3612" data-name="Path 3612" d="M621.22,294.089s-24.678,19.364-29.052,54.126" transform="translate(-225.956 156.256)" fill="none" stroke="#fff" stroke-linecap="round" stroke-miterlimit="10" stroke-width="1.575"/>
    <path id="Path_3613" data-name="Path 3613" d="M558.446,277.946C554.558,280.388,554.8,284.625,555,290s-1.339,7.333-4.418,10.913-1.418,9.05,3.931,11.482,10.008,6.187,7.172,12.514-1.824,17.838,12.155,21.6l17.974.041s12.616-7.347,14.237-20.752-9.116-14.59-12.155-19.063-2.137-10.567-2.082-16.738-4.6-9.294-10.884-8.947-8.732-.007-11.974-2.224S561.688,275.908,558.446,277.946Z" transform="translate(-221.729 157.957)" fill="#abdf55"/>
    <path id="Path_3614" data-name="Path 3614" d="M566.4,286.9c.038.178,21.862,15.009,20.792,60.542" transform="translate(-223.43 156.961)" fill="none" stroke="#fff" stroke-linecap="round" stroke-miterlimit="10" stroke-width="1.575"/>
    <path id="Path_3615" data-name="Path 3615" d="M581.753,356.708H209.747a1.42,1.42,0,0,1-1.421-1.421h0a1.421,1.421,0,0,1,1.421-1.421H581.753a1.421,1.421,0,0,1,1.421,1.421h0A1.42,1.42,0,0,1,581.753,356.708Z" transform="translate(-188.326 150.434)" fill="#4a80b9"/>
    <path id="Path_3616" data-name="Path 3616" d="M415.33,338.655c3.038,2.447,11.713,12.269,44.85,12.269,9.243,0,19.227.386,27.336-1.815,20.963-5.692,34.688-13.317,34.688-13.317L481.659,322l-36.348.207Z" transform="translate(-208.619 153.559)" fill="#1877f2"/>
    <path id="Path_3617" data-name="Path 3617" d="M444.533,334.048l-15.855,3.019.574,8.634,17.771-.438Z" transform="translate(-209.928 152.377)" fill="#ff9a8d"/>
    <path id="Path_3618" data-name="Path 3618" d="M446.256,331.69s38.435-10.87,50.385-13.907c13.684-3.477,34.442-12.917,41.441-4.167s-1.539,20.4-20.469,25.513-70.733,4.606-70.733,4.606Z" transform="translate(-211.651 154.734)" fill="#1877f2"/>
    <path id="Path_3619" data-name="Path 3619" d="M412.082,331.541a21.334,21.334,0,0,0-.523,6.189c.1,4.2,2.229,7.393,2.445,13.527a20.465,20.465,0,0,0,2.267-10.272A12.45,12.45,0,0,0,412.082,331.541Z" transform="translate(-208.249 152.623)" fill="#4194ff"/>
    <path id="Path_3620" data-name="Path 3620" d="M435.524,345.681c-2.483.265-6.635,2.2-9.181,3.552s-3.906,2.76-8.45,2.727c0,0-.019-12.011-.505-15.727s-1.237-4.353-1.237-4.353,4.209.269,6.3,1.391,2.327,1.635,6.02,1.779,5.2.343,6.814.312A10.243,10.243,0,0,1,435.524,345.681Z" transform="translate(-208.7 152.59)" fill="#ea4335"/>
    <path id="Path_3621" data-name="Path 3621" d="M425.644,347.615s1.41-6.237-.656-10.5" transform="translate(-209.566 152.076)" fill="none" stroke="#f7c64c" stroke-linecap="round" stroke-miterlimit="10" stroke-width="0.924"/>
    <path id="Path_3622" data-name="Path 3622" d="M428.533,346.941a15.056,15.056,0,0,0-.64-9.279" transform="translate(-209.852 152.021)" fill="none" stroke="#f7c64c" stroke-linecap="round" stroke-miterlimit="10" stroke-width="0.924"/>
    <path id="Path_3623" data-name="Path 3623" d="M431.808,345.792s1.239-3.168-.406-7.848" transform="translate(-210.195 151.994)" fill="none" stroke="#f7c64c" stroke-linecap="round" stroke-miterlimit="10" stroke-width="0.924"/>
    <path id="Path_3624" data-name="Path 3624" d="M417.5,351.886c-1.438-.026-3.195-.068-3.438-.669s1.438-4.187.768-11.291c-.359-3.817-3.036-8.3-2.691-8.425s2.448-.914,3.619.306S422.863,340.82,417.5,351.886Z" transform="translate(-208.304 152.662)" fill="#f7c64c"/>
    <path id="Path_3625" data-name="Path 3625" d="M523.687,239.414c5-3.536,15.771-11.762,21.437-29.428a35.42,35.42,0,0,0,1.91-12.025c-2.921-2.462-2.615-7.114-5.282-10-3.749-4.062-7.107-9.215.226-9.215,4.089,0,7.851.166,9.862,2.111a32.258,32.258,0,0,1,5.163,7.7c1.249,3.593-.2,8.119-.357,13.585S552.9,241.814,526.5,256.185Z" transform="translate(-219.242 167.602)" fill="#ff9a8d"/>
    <path id="Path_3626" data-name="Path 3626" d="M459.6,231.652a52.267,52.267,0,0,1-.5,6.186c-.381,1.808,0,2.759-5.519,3.712,0,0,2.241,7.232,11.806,8.469s13.466-6.281,13.18-6.281a20.073,20.073,0,0,1-3.806-1.651c-.856-.555-.224-11.1-.224-11.1Z" transform="translate(-212.37 162.48)" fill="#ff9a8d"/>
    <path id="Path_3627" data-name="Path 3627" d="M475.052,233.655s-1.168,3.706-6.973,4.087-7.968-3.28-7.968-3.28l.133-2.811,14.937-.667Z" transform="translate(-213.01 162.48)" fill="#ba5964"/>
    <path id="Path_3628" data-name="Path 3628" d="M449.617,214.1s-3-.47-4.319,1.737.33,6.331,3.454,7.018c2.993.658,3.976-1.019,3.976-1.019Z" transform="translate(-211.513 164.141)" fill="#ff9a8d"/>
    <path id="Path_3631" data-name="Path 3631" d="M482.31,207.851s2.616-1.549,4.659.014,2.038,6-.608,7.8c-2.536,1.72-4.071.526-4.071.526Z" transform="translate(-215.184 164.814)" fill="#ff9a8d"/>
    <path id="Path_3634" data-name="Path 3634" d="M468.317,191.715a14.063,14.063,0,0,0-7.2-.594,14.393,14.393,0,0,0-6.611,3.127,16.042,16.042,0,0,0-4.98,15.223l0,.024a41.489,41.489,0,0,0,1.188,4.7l.682,2.156a33.853,33.853,0,0,0,3.662,7.862,12.945,12.945,0,0,0,23.935-4.6,33.819,33.819,0,0,0,.489-8.66l-.165-2.255a41.231,41.231,0,0,0-.638-4.806l0-.024A15.959,15.959,0,0,0,468.317,191.715Z" transform="translate(-211.941 166.41)" fill="#ff9a8d"/>
    <path id="Path_3640" data-name="Path 3640" d="M441.016,196.43s5.552-1.082,7.668,1.767" transform="translate(-211.138 165.887)" fill="none" stroke="#232930" stroke-linecap="round" stroke-miterlimit="10" stroke-width="2"/>
    <path id="Path_3641" data-name="Path 3641" d="M440.837,190.392s6.891,1.16,7.928,7.748" transform="translate(-211.12 166.459)" fill="none" stroke="#232930" stroke-linecap="round" stroke-miterlimit="10" stroke-width="2"/>
    <path id="Path_3642" data-name="Path 3642" d="M451.239,196.829s3.885,5.848,10.271,7.576,9.995-5.663,9.348-9.026c0,0,6.242,10.05,7.647,10.02a20.841,20.841,0,0,0,1.025-8.581,11.058,11.058,0,0,0-4.954-8.453,4.522,4.522,0,0,0-5.234-.057,11.129,11.129,0,0,0-11.321-6.062c-7.536.844-10.466,6.049-9.368,13.991,0,0-2.829-.8-4.523,2.486s.191,9.665,2.445,12.69a8.613,8.613,0,0,1,2.908-.44,22.542,22.542,0,0,1-.08-9.86C450.413,197.364,451.239,196.829,451.239,196.829Z" transform="translate(-211.379 167.266)" fill="#232930"/>
    <path id="Path_3643" data-name="Path 3643" d="M453.765,242.142c.676,2.725,4.528,7.044,10.128,7.307s10.225-3.5,10.989-5.155c4.676.432,10.613,1.7,12.608,2.064,2.824.513,5.562,3.032,4.552,10.981-.98,7.719-7.1,56.514-7.1,56.514s-16.188,6.282-38.069.522c0,0-13.242-52.961-14.42-57.543s-2.618-9.425,1.571-10.864S453.765,242.142,453.765,242.142Z" transform="translate(-210.178 161.387)" fill="#f7c64c"/>
    <path id="Path_3644" data-name="Path 3644" d="M472.908,303.039c.308.06.621.106.934.139,3.085.322,1.681-3.164.713-4.537-1.481-2.1-11.743-10.052-11.743-10.052l-7.974.673-8.983,3.7-3.692,2.866,2.139,8.552c3.358-2.1,11.478-7.089,13.281-7.256a6.434,6.434,0,0,1,3.16.723c1.461.631,2.929,1.2,4.424,1.749a21.357,21.357,0,0,1,2.008.81c1.174.568,2.239,1.348,3.424,1.893A10.217,10.217,0,0,0,472.908,303.039Z" transform="translate(-211.25 156.832)" fill="#e6b12b"/>
    <line id="Line_1" data-name="Line 1" x2="5.811" y2="2.771" transform="translate(296.119 443.176)" fill="none" stroke="#1877f2" stroke-linecap="round" stroke-miterlimit="10" stroke-width="2.1"/>
    <line id="Line_2" data-name="Line 2" x2="5.811" y2="2.772" transform="translate(293.662 447.996)" fill="none" stroke="#1877f2" stroke-linecap="round" stroke-miterlimit="10" stroke-width="2.1"/>
    <path id="Path_3645" data-name="Path 3645" d="M421.78,310.824c7.641,1.115,21.184,1.388,33.151-9.441,9.637-8.719,18.428-25.367,40.807-18.048" transform="translate(-209.252 157.525)" fill="none" stroke="#4a80b9" stroke-miterlimit="10" stroke-width="1"/>
    <path id="Path_3646" data-name="Path 3646" d="M514.129,282.328c2.643,1.4-2.764,11.618-5.407,10.22l-3.68-1.947a5.782,5.782,0,0,1-2.406-7.814h0a5.783,5.783,0,0,1,7.815-2.406Z" transform="translate(-217.113 157.703)" fill="#f66639"/>
    <path id="Path_3647" data-name="Path 3647" d="M425.164,255.262s-18.105,32.725-21.4,38.243-2.615,11.716-1.937,13.265,10.069,2.614,18.686-.678,30.8-14.564,32.45-15.435a40.411,40.411,0,0,0,4.226,2.392c2.96,1.4,5.359,1.459,7.276,2.912s4.024,4.22,7.732,2.431c2.207-1.065-2.689-7.933-4.881-11.722-2.142-1.835-9.8-5-13.632-4.456-5.425.772-32.674,10.047-32.674,10.047l9.873-17.037Z" transform="translate(-207.242 160.1)" fill="#ff9a8d"/>
    <path id="Path_3648" data-name="Path 3648" d="M433.123,246.049c-4.445,1.4-6.159,3.575-10.508,11.483s-10.1,17.53-10.1,17.53a24.154,24.154,0,0,0,14.977,9.358l6.993-11.813Z" transform="translate(-208.344 161.004)" fill="#f7c64c"/>
    <path id="Path_3649" data-name="Path 3649" d="M493.605,246.737c5.319.868,18.855,4.837,27.133-.729a32.4,32.4,0,0,1,4.53,18.8s-11.221,10-28.758,5.99Z" transform="translate(-216.293 161.008)" fill="#f7c64c"/>
    <path id="Path_3650" data-name="Path 3650" d="M495,336.787l15.563,4.278-1.263,8.56-17.679-1.858Z" transform="translate(-216.099 152.107)" fill="#ff9a8d"/>
    <path id="Path_3651" data-name="Path 3651" d="M485.3,333.879s-35.761-12.334-49.018-17.192-32.69-14.575-40.366-6.413-1.263,20.317,17.2,26.924,70.6,8.638,70.6,8.638A23.1,23.1,0,0,0,485.3,333.879Z" transform="translate(-206.405 155.016)" fill="#4194ff"/>
    <path id="Path_3652" data-name="Path 3652" d="M529.021,337.018a21.322,21.322,0,0,1,.026,6.211c-.436,4.183-2.813,7.192-3.52,13.288A20.473,20.473,0,0,1,524.09,346.1,12.449,12.449,0,0,1,529.021,337.018Z" transform="translate(-219.271 152.084)" fill="#4194ff"/>
    <path id="Path_3653" data-name="Path 3653" d="M502.811,349.241c2.454.464,6.437,2.728,8.868,4.275s3.673,3.063,8.2,3.394c0,0,.98-11.972,1.762-15.636s1.58-4.24,1.58-4.24-4.217-.069-6.392.881-2.451,1.444-6.143,1.292-5.214-.075-6.818-.234A10.244,10.244,0,0,0,502.811,349.241Z" transform="translate(-217.106 152.082)" fill="#ea4335"/>
    <path id="Path_3654" data-name="Path 3654" d="M514.643,351.959s-.906-6.329,1.494-10.417" transform="translate(-218.34 151.641)" fill="none" stroke="#f7c64c" stroke-linecap="round" stroke-miterlimit="10" stroke-width="0.924"/>
    <path id="Path_3655" data-name="Path 3655" d="M511.824,351.057a15.056,15.056,0,0,1,1.382-9.2" transform="translate(-218.061 151.609)" fill="none" stroke="#f7c64c" stroke-linecap="round" stroke-miterlimit="10" stroke-width="0.924"/>
    <path id="Path_3656" data-name="Path 3656" d="M508.686,349.649s-.981-3.257,1.033-7.79" transform="translate(-217.748 151.609)" fill="none" stroke="#f7c64c" stroke-linecap="round" stroke-miterlimit="10" stroke-width="0.924"/>
    <path id="Path_3657" data-name="Path 3657" d="M521.671,356.852c1.435.089,3.189.189,3.48-.392s-1.1-4.289.137-11.316c.664-3.777,3.691-8.028,3.357-8.183s-2.367-1.108-3.632.015S517.207,345.392,521.671,356.852Z" transform="translate(-218.895 152.141)" fill="#f7c64c"/>
    <path id="Path_3658" data-name="Path 3658" d="M485.256,341.3h-.8s-23.31-1.514-48.272-5.63c-24.521-4.044-41.1-12.289-43.323-18.356-1.091,7.337,5.973,15.772,20.26,20.885,18.461,6.607,70.6,8.638,70.6,8.638A23.577,23.577,0,0,0,485.256,341.3Z" transform="translate(-206.406 154.018)" fill="#4194ff"/>
    <g id="Group_8198" data-name="Group 8198" transform="translate(186.333 462.139)">
      <g id="Group_8197" data-name="Group 8197" clip-path="url(#clip-path)">
        <path id="Path_3659" data-name="Path 3659" d="M490,334.464a62.778,62.778,0,0,1-2.115,14.934" transform="translate(-402.066 -309.804)" fill="none" stroke="#f7c64c" stroke-miterlimit="10" stroke-width="1"/>
      </g>
    </g>
    <path id="Path_3661" data-name="Path 3661" d="M436.873,273.51s2.78-7.372.879-18.248c0,0,3.484,13.268-.3,20.578Z" transform="translate(-210.732 160.1)" fill="#e6b12b"/>
    <path id="Path_3662" data-name="Path 3662" d="M496.738,271.733a53.5,53.5,0,0,0-.8-16.2s2.21,4.5,2.1,16.471Z" transform="translate(-216.521 160.074)" fill="#e6b12b"/>
    <path id="Path_3663" data-name="Path 3663" d="M373.359,321.1c3.237-.652,8.909-1.223,12.936,2.3,2.575,2.251,1.356,2.642-.943,2.6-3.871-.069-6.955,3.18-6.955,3.18s-5.036.576-6.272-3.426C370.334,319.962,373.359,321.1,373.359,321.1Z" transform="translate(-204.328 153.693)" fill="#e9a322"/>
    <path id="Path_3664" data-name="Path 3664" d="M351.008,348.916h24.864c5.676.129,9.548-.308,12.334-2.774,3.235-2.865,3.8-7.973,3.282-11.882-.6-1.573-4.04-.409-8.276-1.125-3.844-.649-6.068-2.382-8.267-5.313-2.182-2.91-3.354-4.08-7.675-6.183a9.48,9.48,0,0,0-4.3-1.042,19.867,19.867,0,0,1,3.839-5.471c2.794-2.584-2.189-3.611-7.87-1.058a30.145,30.145,0,0,0-9.388,7.3c-1.61,1.833-5.821,1.558-10.384-1.947s-20.565-18.053-38.089-15.606-29.691,16.8-31.476,27.112,1.653,16.175,4.629,18.007Z" transform="translate(-194.285 155.367)" fill="#fab942"/>
    <path id="Path_3665" data-name="Path 3665" d="M267.386,333.822c-4.879-2.645-17.349-2.815-26.743,4.669-9.159,7.3-12.975,22.527-5.429,34.017s22.477,11.851,24.4,10.226-7.962-7.491-10.645-14.983c0,0,5.347,3.4,8.4,3.724s-4.656-7.552-5.459-15.9,3.317-17.5,13.459-17.1Z" transform="translate(-190.568 152.563)" fill="#fab942"/>
    <path id="Path_3666" data-name="Path 3666" d="M404.021,343.052c-.546.106-.345-2.907-1.006-2.619s.409,1.831.409,1.831c-1.881-.464-4.534-3.162-3.476-4.833,1.09-1.722,4.145-.938,4.86-.639C405.9,337.248,406.651,340.88,404.021,343.052Z" transform="translate(-207.088 152.152)" fill="#232930"/>
    <path id="Path_3667" data-name="Path 3667" d="M301.225,318.432a11.484,11.484,0,0,1,9.3,7.821c2.574,7.267-.287,11.633-2.406,13.98,0,0,9.537-.908,13.777,1.892s3.86,8.252,3.86,8.252l2.308.013s.1-6.672-4.366-9.472a17.571,17.571,0,0,0-10.735-2.977,15.781,15.781,0,0,0-.379-12.316C309.58,318.969,303.875,318.053,301.225,318.432Z" transform="translate(-197.434 153.916)" fill="#e9a322"/>
    <path id="Path_3668" data-name="Path 3668" d="M340.13,342.076s9.927-1.1,14.132,2.068,3.708,8.459,3.708,8.459l2.358.021s.621-5.652-3.653-9.1S342.957,341.11,340.13,342.076Z" transform="translate(-201.248 151.682)" fill="#e9a322"/>
    <path id="Path_3669" data-name="Path 3669" d="M371.771,336.739a2.8,2.8,0,0,1,2.513-3.124c3.158-.7,4,1.661,4,1.661a6.727,6.727,0,0,0-3.7-.1A7.277,7.277,0,0,0,371.771,336.739Z" transform="translate(-204.348 152.432)" fill="#232930"/>
    <path id="Path_3670" data-name="Path 3670" d="M384.076,154.816l19.16,19.85-6.418,7.239-21.24-17.5ZM409.54,179.7a5.2,5.2,0,0,1,1.31,1.754,5.741,5.741,0,0,1,.511,2.044,5.558,5.558,0,0,1-.273,2.082,5.247,5.247,0,0,1-1.081,1.871,5.325,5.325,0,0,1-1.745,1.319,5.544,5.544,0,0,1-4.116.247,5.3,5.3,0,0,1-1.89-1.1,5.441,5.441,0,0,1-1.319-1.744,5.509,5.509,0,0,1-.54-2.051,5.764,5.764,0,0,1,.263-2.091,5.337,5.337,0,0,1,2.827-3.189,5.756,5.756,0,0,1,2.044-.511,5.677,5.677,0,0,1,2.111.281A5.316,5.316,0,0,1,409.54,179.7Z" transform="translate(-204.723 169.186)" fill="#1877f2"/>
    <path id="Path_3671" data-name="Path 3671" d="M426.733,159.437l-8.575,2.14a14.555,14.555,0,0,1-.819-4.579,10,10,0,0,1,.553-3.344,8.135,8.135,0,0,1,1.363-2.415,20.7,20.7,0,0,1,1.682-1.795q.839-.789,1.461-1.483a2.68,2.68,0,0,0,.711-1.525,2.179,2.179,0,0,0-.161-1.078,2.255,2.255,0,0,0-.8-1,3.479,3.479,0,0,0-1.544-.57,6.118,6.118,0,0,0-2.361.2,17.482,17.482,0,0,0-2.128.706,24.233,24.233,0,0,0-2.5,1.163,26.382,26.382,0,0,0-2.493,1.512,15.122,15.122,0,0,0-2.114,1.727l-3.6-9.665q.8-.793,1.83-1.682a19.389,19.389,0,0,1,2.333-1.716,23.876,23.876,0,0,1,2.9-1.546,20.725,20.725,0,0,1,3.527-1.2,20.378,20.378,0,0,1,6.113-.611,14.969,14.969,0,0,1,5.492,1.324,12.57,12.57,0,0,1,4.327,3.3,12.835,12.835,0,0,1,2.62,5.314,9.488,9.488,0,0,1,.281,4.04,7.47,7.47,0,0,1-1.153,2.834,10.723,10.723,0,0,1-1.992,2.168q-1.161.963-2.23,2.025a11.425,11.425,0,0,0-1.849,2.415A7.322,7.322,0,0,0,426.733,159.437Zm2.94,6.38a5.186,5.186,0,0,1,.088,2.187,5.776,5.776,0,0,1-.733,1.976,5.583,5.583,0,0,1-1.4,1.562,5.254,5.254,0,0,1-1.949.932,5.32,5.32,0,0,1-2.185.1,5.54,5.54,0,0,1-3.535-2.122,5.318,5.318,0,0,1-.937-1.975,5.567,5.567,0,0,1,.612-4.182,5.767,5.767,0,0,1,1.4-1.576,5.21,5.21,0,0,1,1.973-.951,5.138,5.138,0,0,1,2.161-.082,5.769,5.769,0,0,1,1.975.734,5.69,5.69,0,0,1,1.583,1.423A5.326,5.326,0,0,1,429.673,165.816Z" transform="translate(-207.646 171.359)" fill="#1877f2"/>
    <path id="Union_124" data-name="Union 124" d="M6136.553,19053.584h0l-.029-.078c0-.014-.01-.025-.014-.039l-.021-.064-.018-.053-.018-.061c-.018-.061-.034-.121-.048-.182-.064.084-.131.166-.2.246s-.158.182-.239.268l-.022.023-.006.006-.1.105-.029.027-.026.027-.014.012-.1.094-.056.051h0l-.111.1,0,0a4.92,4.92,0,0,1-5.492.732,7.211,7.211,0,0,1-3.388-3.377,12.459,12.459,0,0,1-12.225.77,9.82,9.82,0,0,1-5.391-8.934,10.075,10.075,0,0,0,1.416-10.6,9.714,9.714,0,0,1,2.226-6.238c1.472-1.8,4.1-3.725,6.566-3.605.09,0,.186.027.275.037a5.969,5.969,0,0,1-.335-1.937,3.73,3.73,0,0,1,1.5-3.051,3.139,3.139,0,0,1,3.7-.205,14.8,14.8,0,0,1,4.631-10.35l.127-.111a9.553,9.553,0,0,1,8.982-1.592,8.362,8.362,0,0,1,4.606-4.131c2.318-.842,4.364.281,5.95,1.961,3.245-2.875,7.642-4.434,11.824-2.736a11.947,11.947,0,0,1,6.858,8.4,4.371,4.371,0,0,1,3.021.092,4.124,4.124,0,0,1,2.523,3.186,10.4,10.4,0,0,1,8.526,1.42,10.129,10.129,0,0,1,3.388,12.43,10.455,10.455,0,0,1,2.294,1.475,11.637,11.637,0,0,1,3.781,10.576l-.029.18c-.693,4.018-3.566,8.541-7.594,9.9a7.279,7.279,0,0,1-2.375.4,8.881,8.881,0,0,1-4.64,3.641,10.087,10.087,0,0,1-6.359-.27l-.171-.068-.037-.016-.048-.02-.081-.035c-.075-.031-.148-.064-.221-.1l-.156-.076a3.765,3.765,0,0,1-2.734,2.186c-.064.01-.129.016-.193.02a2.54,2.54,0,0,1-2.507-1.506,9.843,9.843,0,0,1-6.108,3.529c-.165.021-.332.039-.5.053l-.1.01h0c-.134.01-.269.02-.4.025a12.594,12.594,0,0,1-7.562-2.006,8.1,8.1,0,0,1-5.276,2.85c-.187.016-.382.023-.584.023C6140.764,19057,6137.458,19055.883,6136.553,19053.584Z" transform="translate(-5803.001 -18740)" fill="#d9eaff"/>
    <path id="Union_125" data-name="Union 125" d="M6173.464,19101.746c-4.085-.818-8.75-4.967-10.252-9.482a12.016,12.016,0,0,1-10.649-.355c-3.333-1.971-5.092-5.184-6.094-8.7-1.348,1.967-3.687,3.451-6.013,3.121a3.667,3.667,0,0,1-2.8-1.795c-4.464,3.385-11.234,5.188-15.19.068l-.086-.113a15.928,15.928,0,0,1-3.05-8.082,14.776,14.776,0,0,1-1.8-.533,13.135,13.135,0,0,1-8.286-10.094,14.271,14.271,0,0,1-.243-2.684c.021-7.953,6.405-16.047,14.465-16.828q-.007-.146-.007-.293a4.919,4.919,0,0,1,1.556-3.789,4.6,4.6,0,0,1,4.339-.924c-.043-.57-.065-1.141-.064-1.705.013-6.658,3.172-12.643,10.532-15.227.249-.088.5-.168.761-.242.023-.006.046-.012.069-.02l.082-.021a19.911,19.911,0,0,1,15.525,2.785,11.949,11.949,0,0,1,4.287-5.25,11.054,11.054,0,0,1,9.609-1.449,8.475,8.475,0,0,1,2.661-7.895,6.905,6.905,0,0,1,8.1-.812c1.28-5.963,5.078-10.291,12.184-11.2,5.188-.666,12.347-.01,15.857,4.244a8.961,8.961,0,0,1,7.048,1.832,11.763,11.763,0,0,1,3.812,6.7,12.087,12.087,0,0,1,7.145,3.322,12.922,12.922,0,0,1,3.625,10.2,6.27,6.27,0,0,1,3.582.971,14.237,14.237,0,0,1,5.231,5.154c4.891-2.934,11.623-3.184,16.437-.191,4.436,2.756,5.509,6.8,4.393,10.664,5.332,2.549,6.972,11.795,4.9,17.08-1.649,4.2-6.555,8.371-11.522,9.49-.961,5.66-5.314,10.66-10.541,13.057l-.007,0c-.111.051-.223.1-.334.148l-.022.01-.137.059a.313.313,0,0,1-.038.016l-.125.053-.041.018-.157.063a.233.233,0,0,0-.033.014c-.042.016-.083.031-.123.045-.02.008-.039.016-.058.021l-.109.041c-.017.008-.034.014-.051.02l-.158.059a21.529,21.529,0,0,1-9.844.908c-.283,2.787-1.4,5.576-2.829,6.91a10.968,10.968,0,0,1-8.358,2.35c-2.67,4.354-8.875,6.842-14,6.809a24.156,24.156,0,0,1-16.787-6.961c-3.29,4.77-8.16,8.678-13.871,8.678A12.8,12.8,0,0,1,6173.464,19101.746Z" transform="translate(-6073 -18819)" fill="#d9eaff"/>
  </g>
</svg>
